{"title":"Frankenstein(1931)MPEG-4[DaScubaDude]","uid":15033925,"size":698473585,"categoryP":"video","categoryS":"movies","magnet":"?xt=urn:btih:507154346270a0b184d8957538e91d8136b794fd&amp;dn=Frankenstein%281931%29MPEG-4%5BDaScubaDude%5D&amp;tr=udp%3A%2F%2Ftracker.leechers-paradise.org%3A6969&amp;tr=udp%3A%2F%2Fzer0day.ch%3A1337&amp;tr=udp%3A%2F%2Fopen.demonii.com%3A1337&amp;tr=udp%3A%2F%2Ftracker.coppersurfer.tk%3A6969&amp;tr=udp%3A%2F%2Fexodus.desync.com%3A6969","seeders":1,"leechers":0,"uploader":"dascuba","files":1,"time":1466560990,"description":"Frankenstein (1931)\r\nNot Rated | 1h 10min | Drama, Horror, Sci-Fi | 21 November 1931 (USA)\r\nAn obsessed scientist assembles a living being from parts of exhumed corpses.\r\nDirector: James Whale\r\nWriters: John L. Balderston (based upon the composition by), Mary Shelley (from the novel by) (as Mrs. Percy B. Shelley) |\r\nStars: Colin Clive, Mae Clarke, Boris Karloff |\r\n\r\nGeneral\r\nComplete name                            : FrankensteinFRANKENSTEIN_Title1.mp4\r\nFormat                                   : MPEG-4\r\nFormat profile                           : Base Media\r\nCodec ID                                 : isom (isom/iso2/avc1/mp41)\r\nFile size                                : 666 MiB\r\nDuration                                 : 1h 9mn\r\nOverall bit rate                         : 1 331 Kbps\r\nMovie name                               : FRANKENSTEIN_Title1\r\nWriting application                      : Lavf54.6.100\r\n\r\nVideo\r\nID                                       : 1\r\nFormat                                   : AVC\r\nFormat/Info                              : Advanced Video Codec\r\nFormat profile                           :   \r\nFormat settings, CABAC                   : No\r\nFormat settings, ReFrames                : 6 frames\r\nCodec ID                                 : avc1\r\nCodec ID/Info                            : Advanced Video Coding\r\nDuration                                 : 1h 9mn\r\nBit rate                                 : 1 194 Kbps\r\nWidth                                    : 720 pixels\r\nHeight                                   : 540 pixels\r\nDisplay aspect ratio                     : 4:3\r\nFrame rate mode                          : Constant\r\nFrame rate                               : 29.970 (30000/1001) fps\r\nColor space                              : YUV\r\nChroma subsampling                       : 4:2:0\r\nBit depth                                : 8 bits\r\nScan type                                : Progressive\r\nBits/(Pixel*Frame)                       : 0.102\r\nStream size                              : 597 MiB (90%)\r\n\r\nAudio\r\nID                                       : 2\r\nFormat                                   : AAC\r\nFormat/Info                              : Advanced Audio Codec\r\nFormat profile                           : LC\r\nCodec ID                                 : 40\r\nDuration                                 : 1h 9mn\r\nBit rate mode                            : Constant\r\nBit rate                                 : 132 Kbps\r\nChannel(s)                               : 2 channels\r\nChannel positions                        : Front: L R\r\nSampling rate                            : 44.1 KHz\r\nFrame rate                               : 43.066 fps (1024 spf)\r\nCompression mode                         : Lossy\r\nStream size                              : 65.3 MiB (10%)\r\nDefault                                  : Yes\r\nAlternate group                          : 1","torrent":{"xt":"urn:btih:507154346270a0b184d8957538e91d8136b794fd","amp;dn":"Frankenstein%281931%29MPEG-4%5BDaScubaDude%5D","amp;tr":["udp%3A%2F%2Ftracker.leechers-paradise.org%3A6969","udp%3A%2F%2Fzer0day.ch%3A1337","udp%3A%2F%2Fopen.demonii.com%3A1337","udp%3A%2F%2Ftracker.coppersurfer.tk%3A6969","udp%3A%2F%2Fexodus.desync.com%3A6969"],"infoHash":"507154346270a0b184d8957538e91d8136b794fd","infoHashBuffer":{"type":"Buffer","data":[80,113,84,52,98,112,160,177,132,216,149,117,56,233,29,129,54,183,148,253]},"announce":[],"urlList":[]}}